PathFileType  4	(X/Y/Z) C:\Inversekin\DARPA\DARPA11\Files_W_HJCs\
DataRate	CameraRate	NumFrames	NumMarkers	Units	OrigDataRate	OrigDataStartFrame	OrigNumFrames
  100.0		  100.0		    7		     41		 mm	  100.0	      209	    238
Frame#	Time	R.Shoulder			L.Shoulder			R.Clavicle			L.Clavicle			R.Biceps			R.Elbow			R.Forearm			R.Wrist			L.Biceps			L.Elbow			L.Forearm			L.Wrist			R.ASIS			L.ASIS			R.PSIS			S2			L.PSIS			R.TH1			R.TH2			R.TH3			R.Knee			R.SH1			R.SH2			R.SH3			R.SH4			R.Ankle			R.Heel			R.MT5			R.Toe			L.TH1			L.TH2			L.TH3			L.TH4			L.Knee			L.SH1			L.SH2			L.SH3			L.Ankle			L.Heel			L.MT5			L.Toe			
		X1	Y1	Z1	X2	Y2	Z2	X3	Y3	Z3	X4	Y4	Z4	X5	Y5	Z5	X6	Y6	Z6	X7	Y7	Z7	X8	Y8	Z8	X9	Y9	Z9	X10	Y10	Z10	X11	Y11	Z11	X12	Y12	Z12	X13	Y13	Z13	X14	Y14	Z14	X15	Y15	Z15	X16	Y16	Z16	X17	Y17	Z17	X18	Y18	Z18	X19	Y19	Z19	X20	Y20	Z20	X21	Y21	Z21	X22	Y22	Z22	X23	Y23	Z23	X24	Y24	Z24	X25	Y25	Z25	X26	Y26	Z26	X27	Y27	Z27	X28	Y28	Z28	X29	Y29	Z29	X30	Y30	Z30	X31	Y31	Z31	X32	Y32	Z32	X33	Y33	Z33	X34	Y34	Z34	X35	Y35	Z35	X36	Y36	Z36	X37	Y37	Z37	X38	Y38	Z38	X39	Y39	Z39	X40	Y40	Z40	X41	Y41	Z41	

209	2.08000	1977.456	1494.161	-93.741	1964.556	1497.850	-438.218	2032.655	1453.989	-242.301	2032.802	1454.192	-293.134	2035.691	1240.403	-14.148	2002.860	1146.616	26.647	2123.514	1057.198	25.382	2203.510	963.942	22.003	1931.734	1275.295	-522.500	1880.565	1160.434	-542.313	1927.954	1030.668	-572.495	1956.436	918.589	-577.884	2063.710	980.254	-122.639	2072.553	992.231	-377.267	1856.539	989.420	-221.676	1846.135	964.507	-265.246	1858.900	984.034	-312.864	1982.974	745.150	-66.994	1874.582	750.093	-69.353	1859.827	626.294	-105.931	1873.263	495.647	-117.421	1827.743	407.531	-112.022	1752.965	321.384	-115.637	1760.700	458.118	-118.502	1682.351	366.974	-126.164	1595.564	179.109	-152.710	1488.857	148.728	-208.414	1637.526	39.955	-117.331	1748.553	43.637	-217.530	2155.538	802.809	-401.580	2185.182	676.924	-377.238	2070.755	782.808	-464.287	2084.477	649.752	-430.728	2145.617	520.309	-388.676	2206.193	424.965	-373.425	2116.606	412.728	-411.782	2135.913	297.356	-405.925	2237.730	108.467	-376.544	2163.203	26.900	-334.745	2355.253	54.061	-399.365	2445.969	98.524	-295.711
210	2.09000	1989.984	1494.946	-95.650	1977.968	1498.379	-440.215	2046.056	1454.771	-244.052	2046.119	1455.032	-294.800	2047.019	1240.549	-16.605	2013.182	1146.735	24.015	2132.757	1055.806	23.484	2211.559	961.704	20.612	1946.518	1275.746	-524.348	1895.565	1160.660	-544.044	1943.636	1030.849	-573.730	1972.037	918.391	-578.826	2077.540	980.808	-123.940	2088.032	993.367	-377.642	1871.189	990.074	-223.454	1861.760	964.801	-267.319	1873.464	985.289	-314.977	2000.544	745.162	-67.238	1892.055	748.809	-70.762	1879.992	624.029	-105.730	1894.436	494.654	-116.182	1845.504	406.925	-108.456	1769.266	325.725	-113.839	1781.372	460.927	-119.456	1700.267	372.138	-127.034	1608.134	186.898	-152.035	1501.246	164.747	-209.792	1639.569	43.634	-117.687	1749.507	43.275	-216.991	2168.849	802.865	-403.620	2198.204	676.885	-379.698	2083.802	783.333	-465.997	2096.655	650.314	-432.131	2160.548	521.426	-389.116	2218.072	423.787	-373.990	2129.416	413.922	-414.372	2144.540	298.082	-408.015	2241.713	106.701	-376.747	2164.006	27.869	-335.022	2357.408	47.097	-399.548	2450.459	90.405	-296.944
211	2.10000	2002.296	1495.906	-97.372	1991.750	1498.973	-441.970	2059.000	1455.723	-245.751	2059.414	1455.978	-296.495	2058.813	1241.029	-19.011	2023.474	1147.258	21.312	2141.815	1054.633	21.585	2219.372	959.422	19.276	1961.563	1276.272	-526.158	1911.148	1160.864	-545.904	1959.744	1031.195	-575.105	1989.208	919.232	-579.657	2091.591	981.321	-125.356	2102.569	994.834	-378.304	1885.603	990.756	-225.334	1875.733	966.146	-269.519	1887.990	986.640	-316.852	2018.622	745.205	-67.319	1910.742	747.320	-71.839	1900.726	621.357	-104.987	1917.396	492.573	-112.715	1865.351	407.599	-106.107	1786.242	328.043	-110.431	1803.583	463.273	-120.120	1719.250	377.238	-127.777	1622.911	194.707	-151.386	1516.103	181.882	-210.396	1643.023	49.060	-117.624	1750.828	42.472	-216.207	2182.054	804.272	-405.488	2212.188	678.351	-381.467	2097.441	784.316	-468.106	2110.234	651.596	-433.137	2175.377	522.899	-389.581	2229.287	423.142	-374.607	2141.195	415.607	-416.550	2153.308	299.410	-410.020	2245.869	105.779	-377.539	2164.810	28.637	-335.269	2359.181	42.855	-400.063	2454.006	83.454	-297.060
212	2.11000	2014.530	1497.003	-98.957	2005.424	1499.808	-443.621	2071.852	1456.900	-247.319	2072.521	1457.096	-298.009	2070.103	1241.572	-21.400	2032.956	1148.097	19.018	2150.785	1053.792	19.770	2226.914	957.141	17.917	1976.531	1276.966	-527.927	1926.996	1161.476	-547.812	1976.234	1031.778	-576.474	2006.064	919.495	-580.876	2105.638	981.969	-127.323	2116.719	996.678	-379.625	1899.688	991.436	-226.732	1890.335	966.828	-271.330	1901.753	988.443	-318.558	2037.066	745.547	-67.234	1928.571	744.993	-72.521	1921.650	618.639	-103.936	1940.499	490.850	-110.080	1886.341	408.297	-103.343	1804.069	330.996	-107.987	1826.513	465.785	-120.264	1739.571	382.283	-128.399	1639.518	202.969	-150.173	1533.590	200.221	-210.238	1646.907	55.619	-117.315	1753.816	41.291	-215.038	2195.994	806.832	-407.071	2226.644	681.011	-382.223	2112.060	785.799	-470.240	2124.787	653.452	-434.335	2190.618	525.842	-389.263	2239.830	422.906	-374.894	2152.056	417.353	-418.200	2161.945	300.739	-412.124	2248.880	105.115	-377.459	2165.162	28.738	-335.097	2360.695	40.906	-400.062	2456.038	77.600	-295.394
213	2.12000	2027.022	1498.277	-100.357	2019.048	1500.795	-445.057	2084.884	1458.167	-248.667	2085.648	1458.368	-299.290	2081.040	1242.005	-23.575	2043.548	1149.271	16.594	2159.763	1052.809	17.993	2234.119	954.944	16.697	1991.537	1277.845	-529.623	1942.685	1161.897	-550.051	1993.395	1032.589	-577.862	2023.830	920.515	-581.735	2119.374	982.709	-129.272	2130.269	998.947	-381.299	1913.106	991.764	-228.077	1903.775	967.910	-273.059	1915.810	989.719	-319.781	2055.561	745.914	-66.958	1947.206	742.699	-72.702	1942.968	615.630	-101.529	1964.396	489.009	-107.681	1908.035	409.112	-101.048	1823.692	334.247	-106.198	1850.474	468.092	-119.790	1761.039	387.334	-128.884	1657.207	211.305	-149.072	1553.359	219.102	-209.839	1652.421	63.619	-117.246	1758.328	39.582	-214.083	2209.949	809.656	-408.403	2240.495	683.996	-382.732	2126.351	787.775	-472.008	2139.600	656.542	-435.867	2203.629	527.304	-389.654	2249.848	422.815	-374.731	2162.827	418.831	-419.793	2170.771	302.283	-414.181	2251.414	105.180	-377.193	2165.712	29.141	-334.974	2361.527	40.286	-399.483	2457.704	74.038	-294.088
214	2.13000	2039.324	1499.737	-101.480	2032.526	1502.031	-446.288	2097.454	1459.454	-249.799	2098.501	1459.648	-300.339	2091.996	1242.909	-25.417	2053.448	1149.932	14.162	2168.169	1051.818	16.279	2240.909	952.712	15.536	2006.418	1278.904	-531.288	1958.969	1162.763	-552.207	2010.822	1033.596	-579.185	2041.948	921.703	-582.508	2132.728	983.523	-131.832	2143.547	1001.327	-383.167	1926.279	992.337	-229.097	1916.818	968.740	-274.207	1928.565	991.485	-320.998	2073.092	746.275	-66.614	1964.869	740.472	-72.873	1963.976	612.850	-99.677	1988.197	487.656	-105.613	1930.546	410.231	-98.951	1843.937	337.947	-104.716	1875.256	470.815	-119.333	1783.726	392.437	-129.316	1676.301	220.181	-148.186	1575.220	237.771	-208.830	1660.208	73.205	-117.199	1764.174	37.845	-212.888	2223.398	812.288	-409.561	2253.340	686.524	-383.532	2140.094	790.129	-473.550	2153.080	659.204	-437.555	2214.243	527.876	-390.092	2259.777	422.927	-374.403	2173.842	420.721	-421.437	2178.794	304.041	-415.510	2252.574	104.893	-377.016	2165.939	29.533	-335.031	2362.279	39.654	-399.563	2458.139	70.800	-293.634
215	2.14000	2051.649	1501.261	-102.423	2045.672	1503.475	-447.289	2110.085	1461.040	-250.581	2111.163	1461.101	-301.174	2102.911	1243.739	-26.899	2063.630	1151.155	11.970	2176.372	1051.091	14.798	2247.608	950.579	14.518	2021.892	1280.054	-532.750	1975.227	1163.744	-554.426	2028.764	1034.764	-580.466	2061.004	923.136	-583.310	2146.038	984.243	-133.923	2156.398	1003.716	-385.429	1939.088	992.263	-229.741	1929.839	969.301	-275.281	1941.755	992.884	-321.669	2090.484	747.197	-66.263	1982.218	738.854	-72.565	1984.659	610.526	-97.791	2012.132	486.849	-103.920	1953.930	411.930	-97.263	1865.610	341.907	-103.541	1899.816	473.918	-119.532	1806.347	398.111	-129.951	1695.857	228.332	-147.155	1599.852	255.989	-207.428	1669.890	83.802	-116.987	1768.957	36.034	-211.717	2235.561	813.796	-410.629	2265.369	688.173	-384.342	2153.083	792.468	-475.200	2165.355	661.030	-439.101	2224.603	528.696	-391.294	2267.982	422.331	-374.473	2183.193	422.326	-422.529	2185.797	305.583	-416.115	2253.633	104.927	-376.966	2165.914	30.487	-335.686	2362.578	39.207	-399.714	2458.217	69.292	-294.299
